<svg version="1.1" id="Layer_1" xmlns="http://www.w3.org/2000/svg" xmlns:xlink="http://www.w3.org/1999/xlink" x="0px" y="0px"
	 width="100%" viewBox="0 0 772 772" enable-background="new 0 0 772 772" xml:space="preserve">
<path fill="#01CDA4" opacity="1.000000" stroke="none" 
	d="
M610.163391,432.196045 
C578.226624,468.904816 546.530090,505.352722 514.783752,541.757141 
C473.840698,588.707764 432.859436,635.625183 391.885803,682.549194 
C390.262634,684.408081 388.549194,686.188293 386.462280,688.456848 
C381.523773,682.761292 376.890228,677.383728 372.220490,672.037842 
C351.410797,648.214539 330.551910,624.434082 309.786194,600.572510 
C291.761230,579.860352 273.900940,559.004822 255.852417,538.313293 
C235.058746,514.474670 214.062332,490.812866 193.292435,466.953705 
C167.834045,437.708771 142.507889,408.348602 117.145279,379.020355 
C91.242317,349.067291 65.399803,319.061859 39.458138,289.142365 
C29.213142,277.326447 18.760857,265.690399 8.424682,253.953293 
C3.499475,248.360550 3.525375,247.669495 8.598012,241.918655 
C17.731112,231.564514 26.899828,221.241653 36.006451,210.864288 
C57.191280,186.723343 78.464798,162.658813 99.484673,138.374863 
C122.449867,111.843513 145.091843,85.031982 168.134918,58.569183 
C170.119476,56.290115 174.050095,54.516888 177.081558,54.509533 
C298.223114,54.215546 419.365234,54.142643 540.507263,54.071308 
C559.001526,54.060417 577.497009,54.320251 595.989502,54.168247 
C600.291504,54.132885 603.173401,55.724247 605.805481,58.836620 
C615.908447,70.783165 626.038147,82.709297 636.313477,94.507500 
C651.174011,111.570480 666.197693,128.491241 681.100220,145.517853 
C696.559143,163.180237 711.913269,180.934464 727.395630,198.576187 
C738.261841,210.958054 749.277283,223.208893 760.200378,235.541000 
C762.623108,238.276306 764.727783,241.327469 767.357605,243.836273 
C770.389526,246.728607 769.882080,249.005661 767.353821,251.875519 
C754.801392,266.124359 742.360535,280.471558 729.893799,294.795837 
C692.604187,337.641510 655.322937,380.494354 618.030273,423.337402 
C615.515198,426.226837 612.932739,429.057739 610.163391,432.196045 
M468.500000,86.935593 
C377.341980,86.883659 286.183655,86.925842 195.026657,86.594147 
C188.029129,86.568687 183.900909,89.684937 179.906769,94.279594 
C160.347656,116.779396 140.838974,139.323242 121.228378,161.778076 
C97.668976,188.754440 74.024010,215.656067 50.417717,242.591476 
C45.950428,247.688797 45.829601,248.748169 50.370323,253.911636 
C55.533627,259.783051 61.074909,265.323273 66.209579,271.218475 
C90.909294,299.576691 115.516647,328.015320 140.177505,356.407410 
C160.248428,379.515076 180.282059,402.655609 200.454376,425.674561 
C221.186020,449.331787 242.109085,472.821136 262.866638,496.455750 
C278.898163,514.709167 294.821167,533.058044 310.759735,551.392944 
C326.041565,568.972351 341.264587,586.602722 356.545868,604.182495 
C365.496216,614.479126 374.534485,624.699402 383.477417,635.002319 
C385.604767,637.453247 387.588776,638.214172 390.076660,635.501282 
C395.922943,629.126465 402.038483,622.987000 407.678925,616.436951 
C426.668030,594.385742 445.319305,572.041748 464.431580,550.098755 
C489.576447,521.229736 515.169983,492.751617 540.325256,463.891571 
C570.721497,429.018646 600.810608,393.878174 631.134033,358.941437 
C645.095215,342.856171 659.295654,326.978424 673.390869,311.009521 
C689.899597,292.306335 706.366516,273.565857 722.952026,254.931000 
C727.595764,249.713470 727.737061,247.175247 722.843018,242.278702 
C721.076843,240.511658 719.228210,238.812912 717.596558,236.927750 
C703.006653,220.071625 688.574158,203.077744 673.866821,186.325058 
C653.332764,162.935394 632.551514,139.762970 611.985657,116.401062 
C605.507019,109.041626 599.084045,101.594666 593.205017,93.760468 
C589.710327,89.103569 586.093628,86.736877 579.989197,86.781250 
C543.161011,87.048920 506.330048,86.927811 468.500000,86.935593 
z"/>
<path fill="#02CFA6" opacity="1.000000" stroke="none" 
	d="
M535.984619,413.548004 
C534.379883,414.691833 532.857483,415.958496 531.321960,415.974640 
C509.663879,416.202484 488.002991,416.171814 466.345398,416.427032 
C461.470184,416.484467 461.524597,413.572144 461.545807,410.233124 
C461.674011,390.072998 461.925476,369.912445 461.874939,349.752655 
C461.761292,304.425598 461.483734,259.098999 461.298981,213.772079 
C461.252838,202.452698 461.182251,191.130981 461.360931,179.814102 
C461.461975,173.414017 463.935822,171.620270 468.969238,173.839767 
C470.131989,174.352478 471.589050,174.329803 472.910706,174.330124 
C489.404663,174.334000 505.898773,174.322418 522.392395,174.233215 
C524.200989,174.223434 526.018188,173.765411 527.811829,173.414902 
C534.123657,172.181534 536.195435,173.774155 536.196960,180.120239 
C536.203369,206.617004 536.171509,233.113770 536.155029,259.610535 
C536.123169,310.770142 536.092163,361.929749 535.984619,413.548004 
z"/>
<path fill="#01CDA5" opacity="1.000000" stroke="none" 
	d="
M349.321899,333.999847 
C349.318451,304.528351 349.421509,275.556061 349.205322,246.586166 
C349.169189,241.745575 350.575867,240.387085 355.384583,240.440201 
C376.194305,240.670105 397.009064,240.591782 417.820282,240.417099 
C422.202942,240.380325 423.669708,242.026276 423.664398,246.286942 
C423.596222,300.899353 423.594879,355.511963 423.717133,410.124207 
C423.726929,414.502869 422.623230,416.264313 417.892639,416.233154 
C396.584717,416.092590 375.273956,416.230988 353.965698,416.431396 
C350.179932,416.467010 349.207947,415.047852 349.227936,411.424042 
C349.369415,385.783264 349.313995,360.141388 349.321899,333.999847 
z"/>
<path fill="#01CFA6" opacity="1.000000" stroke="none" 
	d="
M236.763062,368.999878 
C236.748016,349.500519 236.734940,330.501160 236.716629,311.501801 
C236.710632,305.282837 237.710876,304.261871 243.938934,304.260498 
C264.938263,304.255829 285.938354,304.350372 306.936218,304.175964 
C310.635040,304.145233 311.990295,305.221130 311.966705,308.911530 
C311.744293,343.740112 311.621216,378.569336 311.453522,413.398315 
C311.450409,414.041901 311.252014,414.684570 311.064697,415.807861 
C309.440582,415.914795 307.849762,416.105652 306.258270,416.111298 
C285.094849,416.186646 263.930695,416.166809 242.768311,416.349457 
C238.481171,416.386444 236.499130,415.403046 236.620178,410.495972 
C236.957077,396.837769 236.753250,383.166199 236.763062,368.999878 
z"/>
</svg>
